# xmcd
#
# Track frame offsets:
#	150
#	11840
#	24127
#	36670
#	49390
#	61605
#	77720
#	88782
#	111957
#	125725
#	140820
#	152967
#	165002
#	180747
#	200782
#	218650
#
# Disc length: 3063 seconds
#
# Revision: 0
# Processed by: cddbd v1.5.1PL2 Copyright (c) Steve Scherf et al.
# Submitted via: dBpowerAMP V4.0
#
DISCID=e10bf510
DTITLE=Various Artist - Country Ladies - Vol 2
DYEAR=1997
DGENRE=Country
TTITLE0=Patsy Cline - Sweet Dreams
TTITLE1=Loretta Lynn - I Fall to Pieces
TTITLE2=Kitty Wells - This Divorce
TTITLE3=Patty Loveless - Lonely Days, Lonely Nights
TTITLE4=Patsy Cline - Crazy
TTITLE5=Patty Loveless - Sounds of Loneliness
TTITLE6=Patty Loveless - Chains
TTITLE7=Wynona - Don't Look Back
TTITLE8=Barbara Mandrell - I Don't Want to be Right
TTITLE9=Jeanne Pruitt - Satin Sheets
TTITLE10=Tanya Tucker - You Don't Have to Say You Love Me
TTITLE11=Crystal Gayle - I've Cried the Blue Right Out of my Eyes
TTITLE12=Helen Cornelius - God Bless the USA
TTITLE13=Jan Howard - Wind Beneath my Wings
TTITLE14=Nanci Griffith - Lone Star State of Mind
TTITLE15=Donna Fargo - The Happiest Girl in the Whole USA
EXTD=
EXTT0=
EXTT1=
EXTT2=
EXTT3=
EXTT4=
EXTT5=
EXTT6=
EXTT7=
EXTT8=
EXTT9=
EXTT10=
EXTT11=
EXTT12=
EXTT13=
EXTT14=
EXTT15=
PLAYORDER=
